<?xml version="1.0" encoding="UTF-8" standalone="no"?>
<!DOCTYPE svg PUBLIC "-//W3C//DTD SVG 1.1//EN"
 "http://www.w3.org/Graphics/SVG/1.1/DTD/svg11.dtd">
<!-- Generated by graphviz version 12.1.1 (20240910.0053)
 -->
<!-- Title: INFRA Pages: 1 -->
<svg width="1684pt" height="404pt"
 viewBox="0.00 0.00 1683.91 404.00" xmlns="http://www.w3.org/2000/svg" xmlns:xlink="http://www.w3.org/1999/xlink">
<g id="graph0" class="graph" transform="scale(1 1) rotate(0) translate(4 400)">
<title>INFRA</title>
<polygon fill="white" stroke="none" points="-4,4 -4,-400 1679.91,-400 1679.91,4 -4,4"/>
<!-- aws_codestarconnections_connection.source_repo -->
<g id="node1" class="node">
<title>aws_codestarconnections_connection.source_repo</title>
<path fill="#e6e6e6" stroke="black" stroke-width="2" d="M1091.26,-72C1091.26,-72 780.95,-72 780.95,-72 774.95,-72 768.95,-66 768.95,-60 768.95,-60 768.95,-12 768.95,-12 768.95,-6 774.95,0 780.95,0 780.95,0 1091.26,0 1091.26,0 1097.26,0 1103.26,-6 1103.26,-12 1103.26,-12 1103.26,-60 1103.26,-60 1103.26,-66 1097.26,-72 1091.26,-72"/>
<text text-anchor="middle" x="936.11" y="-40.2" font-family="Arial" font-size="14.00">aws_codestarconnections_connection.source_repo</text>
<text text-anchor="middle" x="936.11" y="-23.4" font-family="Arial" font-size="14.00">(AWS::CodeStarConnections::Connection)</text>
</g>
<!-- aws_iam_role.lambda_role -->
<g id="node2" class="node">
<title>aws_iam_role.lambda_role</title>
<path fill="#e6e6e6" stroke="black" stroke-width="2" d="M672.76,-72C672.76,-72 513.45,-72 513.45,-72 507.45,-72 501.45,-66 501.45,-60 501.45,-60 501.45,-12 501.45,-12 501.45,-6 507.45,0 513.45,0 513.45,0 672.76,0 672.76,0 678.76,0 684.76,-6 684.76,-12 684.76,-12 684.76,-60 684.76,-60 684.76,-66 678.76,-72 672.76,-72"/>
<text text-anchor="middle" x="593.11" y="-40.2" font-family="Arial" font-size="14.00">aws_iam_role.lambda_role</text>
<text text-anchor="middle" x="593.11" y="-23.4" font-family="Arial" font-size="14.00">(AWS::IAM::Role)</text>
</g>
<!-- aws_lambda_function.transform_trigger -->
<g id="node3" class="node">
<title>aws_lambda_function.transform_trigger</title>
<path fill="#b7e0ff" stroke="black" stroke-width="2" d="M1018.06,-180C1018.06,-180 780.15,-180 780.15,-180 774.15,-180 768.15,-174 768.15,-168 768.15,-168 768.15,-120 768.15,-120 768.15,-114 774.15,-108 780.15,-108 780.15,-108 1018.06,-108 1018.06,-108 1024.06,-108 1030.06,-114 1030.06,-120 1030.06,-120 1030.06,-168 1030.06,-168 1030.06,-174 1024.06,-180 1018.06,-180"/>
<text text-anchor="middle" x="899.11" y="-148.2" font-family="Arial" font-size="14.00">aws_lambda_function.transform_trigger</text>
<text text-anchor="middle" x="899.11" y="-131.4" font-family="Arial" font-size="14.00">(AWS::Lambda::Function)</text>
</g>
<!-- aws_lambda_function.transform_trigger&#45;&gt;aws_codestarconnections_connection.source_repo -->
<g id="edge2" class="edge">
<title>aws_lambda_function.transform_trigger&#45;&gt;aws_codestarconnections_connection.source_repo</title>
<path fill="none" stroke="black" d="M911.43,-107.7C914.2,-99.75 917.19,-91.19 920.09,-82.87"/>
<polygon fill="black" stroke="black" points="923.35,-84.17 923.34,-73.57 916.74,-81.86 923.35,-84.17"/>
</g>
<!-- aws_lambda_function.transform_trigger&#45;&gt;aws_iam_role.lambda_role -->
<g id="edge1" class="edge">
<title>aws_lambda_function.transform_trigger&#45;&gt;aws_iam_role.lambda_role</title>
<path fill="none" stroke="black" d="M796.79,-107.56C764.18,-96.26 728.11,-83.76 695.49,-72.47"/>
<polygon fill="black" stroke="black" points="697.06,-69.31 686.46,-69.34 694.77,-75.92 697.06,-69.31"/>
</g>
<!-- aws_lambda_function.poll_connection_status -->
<g id="node4" class="node">
<title>aws_lambda_function.poll_connection_status</title>
<path fill="#b7e0ff" stroke="black" stroke-width="2" d="M1371.98,-180C1371.98,-180 1098.23,-180 1098.23,-180 1092.23,-180 1086.23,-174 1086.23,-168 1086.23,-168 1086.23,-120 1086.23,-120 1086.23,-114 1092.23,-108 1098.23,-108 1098.23,-108 1371.98,-108 1371.98,-108 1377.98,-108 1383.98,-114 1383.98,-120 1383.98,-120 1383.98,-168 1383.98,-168 1383.98,-174 1377.98,-180 1371.98,-180"/>
<text text-anchor="middle" x="1235.11" y="-148.2" font-family="Arial" font-size="14.00">aws_lambda_function.poll_connection_status</text>
<text text-anchor="middle" x="1235.11" y="-131.4" font-family="Arial" font-size="14.00">(AWS::Lambda::Function)</text>
</g>
<!-- aws_lambda_function.poll_connection_status&#45;&gt;aws_codestarconnections_connection.source_repo -->
<g id="edge4" class="edge">
<title>aws_lambda_function.poll_connection_status&#45;&gt;aws_codestarconnections_connection.source_repo</title>
<path fill="none" stroke="black" d="M1135.13,-107.56C1106.7,-97.48 1075.58,-86.45 1046.57,-76.16"/>
<polygon fill="black" stroke="black" points="1048.01,-72.96 1037.42,-72.92 1045.67,-79.56 1048.01,-72.96"/>
</g>
<!-- aws_lambda_function.poll_connection_status&#45;&gt;aws_iam_role.lambda_role -->
<g id="edge3" class="edge">
<title>aws_lambda_function.poll_connection_status&#45;&gt;aws_iam_role.lambda_role</title>
<path fill="none" stroke="black" d="M1085.95,-115.59C1070.15,-112.92 1054.31,-110.34 1039.11,-108 915.53,-89.01 883.39,-92.84 760.11,-72 739.43,-68.51 717.42,-64.27 696.4,-59.96"/>
<polygon fill="black" stroke="black" points="697.16,-56.55 686.66,-57.95 695.74,-63.4 697.16,-56.55"/>
</g>
<!-- aws_cloudwatch_event_rule.poll_connection_schedule -->
<g id="node5" class="node">
<title>aws_cloudwatch_event_rule.poll_connection_schedule</title>
<path fill="#e6e6e6" stroke="black" stroke-width="2" d="M1540.56,-72C1540.56,-72 1207.66,-72 1207.66,-72 1201.66,-72 1195.66,-66 1195.66,-60 1195.66,-60 1195.66,-12 1195.66,-12 1195.66,-6 1201.66,0 1207.66,0 1207.66,0 1540.56,0 1540.56,0 1546.56,0 1552.56,-6 1552.56,-12 1552.56,-12 1552.56,-60 1552.56,-60 1552.56,-66 1546.56,-72 1540.56,-72"/>
<text text-anchor="middle" x="1374.11" y="-40.2" font-family="Arial" font-size="14.00">aws_cloudwatch_event_rule.poll_connection_schedule</text>
<text text-anchor="middle" x="1374.11" y="-23.4" font-family="Arial" font-size="14.00">(AWS::Events::Rule)</text>
</g>
<!-- aws_lambda_function.poll_connection_status&#45;&gt;aws_cloudwatch_event_rule.poll_connection_schedule -->
<g id="edge5" class="edge">
<title>aws_lambda_function.poll_connection_status&#45;&gt;aws_cloudwatch_event_rule.poll_connection_schedule</title>
<path fill="none" stroke="black" d="M1281.39,-107.7C1293.47,-98.5 1306.6,-88.48 1319.08,-78.97"/>
<polygon fill="black" stroke="black" points="1320.99,-81.91 1326.82,-73.06 1316.75,-76.34 1320.99,-81.91"/>
</g>
<!-- aws_cloudwatch_event_target.poll_target -->
<g id="node6" class="node">
<title>aws_cloudwatch_event_target.poll_target</title>
<path fill="#e6e6e6" stroke="black" stroke-width="2" d="M1663.91,-288C1663.91,-288 1414.3,-288 1414.3,-288 1408.3,-288 1402.3,-282 1402.3,-276 1402.3,-276 1402.3,-228 1402.3,-228 1402.3,-222 1408.3,-216 1414.3,-216 1414.3,-216 1663.91,-216 1663.91,-216 1669.91,-216 1675.91,-222 1675.91,-228 1675.91,-228 1675.91,-276 1675.91,-276 1675.91,-282 1669.91,-288 1663.91,-288"/>
<text text-anchor="middle" x="1539.11" y="-256.2" font-family="Arial" font-size="14.00">aws_cloudwatch_event_target.poll_target</text>
<text text-anchor="middle" x="1539.11" y="-239.4" font-family="Arial" font-size="14.00">(AWS::Events::Target)</text>
</g>
<!-- aws_cloudwatch_event_target.poll_target&#45;&gt;aws_lambda_function.poll_connection_status -->
<g id="edge7" class="edge">
<title>aws_cloudwatch_event_target.poll_target&#45;&gt;aws_lambda_function.poll_connection_status</title>
<path fill="none" stroke="black" d="M1437.46,-215.56C1408.55,-205.48 1376.92,-194.45 1347.42,-184.16"/>
<polygon fill="black" stroke="black" points="1348.68,-180.9 1338.09,-180.91 1346.38,-187.51 1348.68,-180.9"/>
</g>
<!-- aws_cloudwatch_event_target.poll_target&#45;&gt;aws_cloudwatch_event_rule.poll_connection_schedule -->
<g id="edge6" class="edge">
<title>aws_cloudwatch_event_target.poll_target&#45;&gt;aws_cloudwatch_event_rule.poll_connection_schedule</title>
<path fill="none" stroke="black" d="M1511.86,-215.66C1483.5,-178.88 1439.01,-121.18 1408.3,-81.35"/>
<polygon fill="black" stroke="black" points="1411.19,-79.37 1402.32,-73.59 1405.65,-83.65 1411.19,-79.37"/>
</g>
<!-- aws_lambda_permission.allow_scheduled_poll -->
<g id="node7" class="node">
<title>aws_lambda_permission.allow_scheduled_poll</title>
<path fill="#e6e6e6" stroke="black" stroke-width="2" d="M1372.64,-288C1372.64,-288 1089.58,-288 1089.58,-288 1083.58,-288 1077.58,-282 1077.58,-276 1077.58,-276 1077.58,-228 1077.58,-228 1077.58,-222 1083.58,-216 1089.58,-216 1089.58,-216 1372.64,-216 1372.64,-216 1378.64,-216 1384.64,-222 1384.64,-228 1384.64,-228 1384.64,-276 1384.64,-276 1384.64,-282 1378.64,-288 1372.64,-288"/>
<text text-anchor="middle" x="1231.11" y="-256.2" font-family="Arial" font-size="14.00">aws_lambda_permission.allow_scheduled_poll</text>
<text text-anchor="middle" x="1231.11" y="-239.4" font-family="Arial" font-size="14.00">(AWS::Lambda::Permission)</text>
</g>
<!-- aws_lambda_permission.allow_scheduled_poll&#45;&gt;aws_lambda_function.poll_connection_status -->
<g id="edge8" class="edge">
<title>aws_lambda_permission.allow_scheduled_poll&#45;&gt;aws_lambda_function.poll_connection_status</title>
<path fill="none" stroke="black" d="M1232.44,-215.7C1232.73,-207.93 1233.05,-199.57 1233.35,-191.43"/>
<polygon fill="black" stroke="black" points="1236.84,-191.78 1233.72,-181.65 1229.85,-191.52 1236.84,-191.78"/>
</g>
<!-- aws_lambda_permission.allow_scheduled_poll&#45;&gt;aws_cloudwatch_event_rule.poll_connection_schedule -->
<g id="edge9" class="edge">
<title>aws_lambda_permission.allow_scheduled_poll&#45;&gt;aws_cloudwatch_event_rule.poll_connection_schedule</title>
<path fill="none" stroke="black" d="M1355.23,-215.55C1370.19,-206.3 1383.53,-194.65 1393.11,-180 1411.78,-151.43 1405.19,-112.76 1394.94,-82.84"/>
<polygon fill="black" stroke="black" points="1398.3,-81.84 1391.56,-73.66 1391.73,-84.26 1398.3,-81.84"/>
</g>
<!-- aws_iam_policy.lambda_codestar_policy -->
<g id="node8" class="node">
<title>aws_iam_policy.lambda_codestar_policy</title>
<path fill="#e6e6e6" stroke="black" stroke-width="2" d="M312.95,-72C312.95,-72 67.26,-72 67.26,-72 61.26,-72 55.26,-66 55.26,-60 55.26,-60 55.26,-12 55.26,-12 55.26,-6 61.26,0 67.26,0 67.26,0 312.95,0 312.95,0 318.95,0 324.95,-6 324.95,-12 324.95,-12 324.95,-60 324.95,-60 324.95,-66 318.95,-72 312.95,-72"/>
<text text-anchor="middle" x="190.11" y="-40.2" font-family="Arial" font-size="14.00">aws_iam_policy.lambda_codestar_policy</text>
<text text-anchor="middle" x="190.11" y="-23.4" font-family="Arial" font-size="14.00">(AWS::IAM::Policy)</text>
</g>
<!-- aws_iam_role_policy_attachment.lambda_codestar_attach -->
<g id="node9" class="node">
<title>aws_iam_role_policy_attachment.lambda_codestar_attach</title>
<path fill="#e6e6e6" stroke="black" stroke-width="2" d="M368.21,-180C368.21,-180 12,-180 12,-180 6,-180 0,-174 0,-168 0,-168 0,-120 0,-120 0,-114 6,-108 12,-108 12,-108 368.21,-108 368.21,-108 374.21,-108 380.21,-114 380.21,-120 380.21,-120 380.21,-168 380.21,-168 380.21,-174 374.21,-180 368.21,-180"/>
<text text-anchor="middle" x="190.11" y="-148.2" font-family="Arial" font-size="14.00">aws_iam_role_policy_attachment.lambda_codestar_attach</text>
<text text-anchor="middle" x="190.11" y="-131.4" font-family="Arial" font-size="14.00">(AWS::IAM::PolicyAttachment)</text>
</g>
<!-- aws_iam_role_policy_attachment.lambda_codestar_attach&#45;&gt;aws_iam_role.lambda_role -->
<g id="edge10" class="edge">
<title>aws_iam_role_policy_attachment.lambda_codestar_attach&#45;&gt;aws_iam_role.lambda_role</title>
<path fill="none" stroke="black" d="M324.86,-107.56C378.79,-93.37 439.92,-77.29 490.18,-64.07"/>
<polygon fill="black" stroke="black" points="490.82,-67.52 499.6,-61.59 489.04,-60.75 490.82,-67.52"/>
</g>
<!-- aws_iam_role_policy_attachment.lambda_codestar_attach&#45;&gt;aws_iam_policy.lambda_codestar_policy -->
<g id="edge11" class="edge">
<title>aws_iam_role_policy_attachment.lambda_codestar_attach&#45;&gt;aws_iam_policy.lambda_codestar_policy</title>
<path fill="none" stroke="black" d="M190.11,-107.7C190.11,-99.93 190.11,-91.57 190.11,-83.43"/>
<polygon fill="black" stroke="black" points="193.61,-83.66 190.11,-73.66 186.61,-83.66 193.61,-83.66"/>
</g>
<!-- aws_iam_role_policy_attachment.lambda_basic -->
<g id="node10" class="node">
<title>aws_iam_role_policy_attachment.lambda_basic</title>
<path fill="#e6e6e6" stroke="black" stroke-width="2" d="M737.74,-180C737.74,-180 448.47,-180 448.47,-180 442.47,-180 436.47,-174 436.47,-168 436.47,-168 436.47,-120 436.47,-120 436.47,-114 442.47,-108 448.47,-108 448.47,-108 737.74,-108 737.74,-108 743.74,-108 749.74,-114 749.74,-120 749.74,-120 749.74,-168 749.74,-168 749.74,-174 743.74,-180 737.74,-180"/>
<text text-anchor="middle" x="593.11" y="-148.2" font-family="Arial" font-size="14.00">aws_iam_role_policy_attachment.lambda_basic</text>
<text text-anchor="middle" x="593.11" y="-131.4" font-family="Arial" font-size="14.00">(AWS::IAM::PolicyAttachment)</text>
</g>
<!-- aws_iam_role_policy_attachment.lambda_basic&#45;&gt;aws_iam_role.lambda_role -->
<g id="edge12" class="edge">
<title>aws_iam_role_policy_attachment.lambda_basic&#45;&gt;aws_iam_role.lambda_role</title>
<path fill="none" stroke="black" d="M593.11,-107.7C593.11,-99.93 593.11,-91.57 593.11,-83.43"/>
<polygon fill="black" stroke="black" points="596.61,-83.66 593.11,-73.66 589.61,-83.66 596.61,-83.66"/>
</g>
<!-- aws_iam_policy.lambda_manage_trigger_policy -->
<g id="node11" class="node">
<title>aws_iam_policy.lambda_manage_trigger_policy</title>
<path fill="#e6e6e6" stroke="black" stroke-width="2" d="M1044.13,-288C1044.13,-288 754.08,-288 754.08,-288 748.08,-288 742.08,-282 742.08,-276 742.08,-276 742.08,-228 742.08,-228 742.08,-222 748.08,-216 754.08,-216 754.08,-216 1044.13,-216 1044.13,-216 1050.13,-216 1056.13,-222 1056.13,-228 1056.13,-228 1056.13,-276 1056.13,-276 1056.13,-282 1050.13,-288 1044.13,-288"/>
<text text-anchor="middle" x="899.11" y="-256.2" font-family="Arial" font-size="14.00">aws_iam_policy.lambda_manage_trigger_policy</text>
<text text-anchor="middle" x="899.11" y="-239.4" font-family="Arial" font-size="14.00">(AWS::IAM::Policy)</text>
</g>
<!-- aws_iam_policy.lambda_manage_trigger_policy&#45;&gt;aws_lambda_function.transform_trigger -->
<g id="edge13" class="edge">
<title>aws_iam_policy.lambda_manage_trigger_policy&#45;&gt;aws_lambda_function.transform_trigger</title>
<path fill="none" stroke="black" d="M899.11,-215.7C899.11,-207.93 899.11,-199.57 899.11,-191.43"/>
<polygon fill="black" stroke="black" points="902.61,-191.66 899.11,-181.66 895.61,-191.66 902.61,-191.66"/>
</g>
<!-- aws_iam_policy.lambda_manage_trigger_policy&#45;&gt;aws_cloudwatch_event_rule.poll_connection_schedule -->
<g id="edge14" class="edge">
<title>aws_iam_policy.lambda_manage_trigger_policy&#45;&gt;aws_cloudwatch_event_rule.poll_connection_schedule</title>
<path fill="none" stroke="black" d="M989.34,-215.62C1007.21,-205.88 1024.83,-194.05 1039.11,-180 1064.9,-154.62 1048.52,-130.18 1077.11,-108 1108.21,-83.86 1146.27,-67.75 1184.62,-57.05"/>
<polygon fill="black" stroke="black" points="1185.21,-60.51 1193.98,-54.56 1183.41,-53.75 1185.21,-60.51"/>
</g>
<!-- aws_iam_role_policy_attachment.lambda_manage_trigger_attach -->
<g id="node12" class="node">
<title>aws_iam_role_policy_attachment.lambda_manage_trigger_attach</title>
<path fill="#e6e6e6" stroke="black" stroke-width="2" d="M853.39,-396C853.39,-396 452.82,-396 452.82,-396 446.82,-396 440.82,-390 440.82,-384 440.82,-384 440.82,-336 440.82,-336 440.82,-330 446.82,-324 452.82,-324 452.82,-324 853.39,-324 853.39,-324 859.39,-324 865.39,-330 865.39,-336 865.39,-336 865.39,-384 865.39,-384 865.39,-390 859.39,-396 853.39,-396"/>
<text text-anchor="middle" x="653.11" y="-364.2" font-family="Arial" font-size="14.00">aws_iam_role_policy_attachment.lambda_manage_trigger_attach</text>
<text text-anchor="middle" x="653.11" y="-347.4" font-family="Arial" font-size="14.00">(AWS::IAM::PolicyAttachment)</text>
</g>
<!-- aws_iam_role_policy_attachment.lambda_manage_trigger_attach&#45;&gt;aws_iam_role.lambda_role -->
<g id="edge15" class="edge">
<title>aws_iam_role_policy_attachment.lambda_manage_trigger_attach&#45;&gt;aws_iam_role.lambda_role</title>
<path fill="none" stroke="black" d="M579.48,-323.61C526.31,-293.58 458.54,-245 427.11,-180 413.17,-151.19 409.48,-134.71 427.11,-108 441.99,-85.45 465.66,-70.04 490.53,-59.51"/>
<polygon fill="black" stroke="black" points="491.8,-62.77 499.82,-55.85 489.24,-56.26 491.8,-62.77"/>
</g>
<!-- aws_iam_role_policy_attachment.lambda_manage_trigger_attach&#45;&gt;aws_iam_policy.lambda_manage_trigger_policy -->
<g id="edge16" class="edge">
<title>aws_iam_role_policy_attachment.lambda_manage_trigger_attach&#45;&gt;aws_iam_policy.lambda_manage_trigger_policy</title>
<path fill="none" stroke="black" d="M735.36,-323.56C758.24,-313.7 783.23,-302.93 806.65,-292.84"/>
<polygon fill="black" stroke="black" points="807.74,-296.18 815.54,-289.01 804.97,-289.75 807.74,-296.18"/>
</g>
</g>
</svg>
